<svg width="960" height="280" viewBox="0 0 960 280" fill="none" xmlns="http://www.w3.org/2000/svg" role="img" aria-labelledby="logoTitle logoDesc">
  <title id="logoTitle">CHO-HUAI POS logo</title>
  <desc id="logoDesc">A custom logo for CHO-HUAI POS featuring a storefront mark with QR payment corners and a credit flow accent.</desc>
  <defs>
    <linearGradient id="tileGradient" x1="40" y1="28" x2="244" y2="232" gradientUnits="userSpaceOnUse">
      <stop offset="0" stop-color="#0F766E"/>
      <stop offset="1" stop-color="#14B8A6"/>
    </linearGradient>
    <linearGradient id="creditGradient" x1="82" y1="178" x2="204" y2="96" gradientUnits="userSpaceOnUse">
      <stop offset="0" stop-color="#F59E0B"/>
      <stop offset="1" stop-color="#FDE68A"/>
    </linearGradient>
    <linearGradient id="wordmarkAccent" x1="0" y1="0" x2="1" y2="1">
      <stop offset="0" stop-color="#0F766E"/>
      <stop offset="1" stop-color="#115E59"/>
    </linearGradient>
    <filter id="tileShadow" x="16" y="12" width="252" height="252" filterUnits="userSpaceOnUse" color-interpolation-filters="sRGB">
      <feFlood flood-opacity="0" result="BackgroundImageFix"/>
      <feColorMatrix in="SourceAlpha" type="matrix" values="0 0 0 0 0 0 0 0 0 0 0 0 0 0 0 0 0 0 127 0" result="hardAlpha"/>
      <feOffset dy="8"/>
      <feGaussianBlur stdDeviation="12"/>
      <feComposite in2="hardAlpha" operator="out"/>
      <feColorMatrix type="matrix" values="0 0 0 0 0.0588235 0 0 0 0 0.317647 0 0 0 0 0.34902 0 0 0 0.18 0"/>
      <feBlend mode="normal" in2="BackgroundImageFix" result="effect1_dropShadow_1_1"/>
      <feBlend mode="normal" in="SourceGraphic" in2="effect1_dropShadow_1_1" result="shape"/>
    </filter>
  </defs>

  <g filter="url(#tileShadow)">
    <rect x="40" y="28" width="204" height="204" rx="44" fill="url(#tileGradient)"/>
  </g>

  <path d="M86 84C86 80.6863 88.6863 78 92 78H132V90H98V124H86V84Z" fill="#99F6E4" fill-opacity="0.7"/>
  <path d="M198 78H192V90H226V124H238V84C238 80.6863 235.314 78 232 78H198Z" fill="#99F6E4" fill-opacity="0.7"/>
  <path d="M92 186H86V176H98V142H86V180C86 183.314 88.6863 186 92 186Z" fill="#CCFBF1" fill-opacity="0.9"/>
  <path d="M226 186H192V174H226V140H238V180C238 183.314 235.314 186 232 186H226Z" fill="#CCFBF1" fill-opacity="0.9"/>

  <path d="M86 114L141.5 67L198 114V122H86V114Z" fill="#F8FAFC"/>
  <path d="M105 122H179C181.209 122 183 123.791 183 126V168C183 170.209 181.209 172 179 172H105C102.791 172 101 170.209 101 168V126C101 123.791 102.791 122 105 122Z" fill="#F8FAFC"/>
  <path d="M126 122V172" stroke="#14B8A6" stroke-width="10" stroke-linecap="round"/>
  <path d="M158 122V172" stroke="#14B8A6" stroke-width="10" stroke-linecap="round"/>
  <path d="M97 122H187" stroke="#0F766E" stroke-width="8" stroke-linecap="round" opacity="0.24"/>
  <rect x="114" y="92" width="56" height="16" rx="8" fill="#FDE68A"/>

  <path d="M92 168C108 191.333 126.667 203 148 203C169.333 203 188 191.333 204 168" stroke="url(#creditGradient)" stroke-width="11" stroke-linecap="round"/>
  <circle cx="95" cy="168" r="8" fill="#F59E0B"/>
  <circle cx="201" cy="168" r="8" fill="#FDE68A"/>

  <g transform="translate(296 66)">
    <text x="0" y="74" fill="url(#wordmarkAccent)" font-family="Sarabun, Geist, Arial, sans-serif" font-size="72" font-weight="700" letter-spacing="2">CHO-HUAI</text>
    <rect x="486" y="16" width="88" height="48" rx="16" fill="#0F766E"/>
    <text x="510" y="50" fill="#F0FDFA" font-family="Geist, Arial, sans-serif" font-size="28" font-weight="700" letter-spacing="3">POS</text>
    <text x="2" y="124" fill="#475569" font-family="Geist, Arial, sans-serif" font-size="24" font-weight="500" letter-spacing="1.4">SMALL STORE POS / QR PAYMENTS / BUILT-IN BNPL</text>
    <path d="M2 146H208" stroke="#14B8A6" stroke-width="6" stroke-linecap="round"/>
  </g>
</svg>