<svg width="160" height="160" viewBox="0 0 160 160" fill="none" xmlns="http://www.w3.org/2000/svg">
<path d="M40.649 23.0881C45.6452 22.9096 51.6907 23.0579 56.7597 23.0562L89.1241 23.0632L108.867 23.0521C111.034 23.0511 113.817 23.1751 115.926 23.0544C125.397 22.513 123.867 29.0043 123.894 36.0718C126.582 40.0258 129.233 44.0048 131.846 48.008C133.083 49.8628 134.449 51.8056 135.582 53.6001C138.507 58.2385 137.003 64.6538 133.154 68.3014C131.562 69.8108 130.311 70.5041 128.284 71.2699L128.3 111.197L128.306 122.754C128.306 125.126 128.413 127.557 128.114 129.905C127.51 134.649 123.362 137.734 118.745 137.902L62.7376 137.896L46.9972 137.903C41.9874 137.906 37.3076 138.776 33.5475 134.972C30.1366 131.523 30.7909 127.165 30.7914 122.761L30.7999 111.582L30.7871 71.3159C29.748 70.8928 28.7826 70.4374 27.8412 69.8223C24.9572 67.922 22.9487 64.9516 22.2594 61.5674C21.1027 55.7867 24.0159 52.8892 27.0122 48.3893L35.2326 36.092C35.479 30.8691 33.4772 24.0866 40.649 23.0881Z" fill="#139085"/>
<path d="M46.1958 66.1147C47.0693 67.0617 48.1537 68.4945 49.1353 69.2324C52.0242 71.4208 55.6631 72.3734 59.2536 71.8812C63.3307 71.2894 66.0957 69.2376 68.5158 66.0379C69.4889 67.3306 70.3942 68.3817 71.6945 69.3728C74.4613 71.4669 77.9487 72.3732 81.3837 71.8914C85.4501 71.2957 88.2275 69.2784 90.6181 66.0313C91.579 67.3333 92.5986 68.4402 93.8979 69.4193C96.6723 71.4947 100.156 72.39 103.588 71.9108C107.73 71.3083 110.461 69.3635 112.904 66.0688C115.682 69.9381 118.938 71.879 123.763 71.9935L123.759 126.382C123.784 128.392 123.899 130.226 122.435 131.821C121.059 133.32 119.755 133.346 117.769 133.357C111.94 133.384 106.08 133.368 100.251 133.367L66.4769 133.364L48.1495 133.362C45.3066 133.361 42.3732 133.427 39.5641 133.291C37.6158 133.195 35.5447 130.97 35.4156 129.059C35.2775 127.015 35.3151 124.913 35.3173 122.867L35.3317 111.388L35.316 71.9752C40.1812 71.8891 43.3266 69.9154 46.1958 66.1147Z" fill="#EDFBF9"/>
<path d="M40.2427 27.5706C44.7033 27.3286 51.6107 27.5552 56.204 27.5566L87.687 27.5431L108.582 27.5415C111.845 27.5348 115.113 27.4964 118.375 27.5572C120.179 27.5908 119.304 34.2798 119.086 34.4528C110.893 34.3446 102.447 34.4496 94.2363 34.4468L39.7223 34.4522C39.6912 32.734 39.1287 28.8823 40.2427 27.5706Z" fill="#139085"/>
<path d="M90.3721 38.8989L103.137 38.9341C104.458 41.9178 105.655 45.2018 106.963 48.2134C107.344 49.0929 109.412 53.9448 109.499 54.6003C103.872 54.5723 98.2442 54.5867 92.6177 54.6432C91.7388 50.0678 91.0181 43.6245 90.3721 38.8989Z" fill="#A0F4E2"/>
<path d="M60.3111 38.9301L68.7393 38.8983C67.922 44.0198 67.229 49.5041 66.5209 54.6477C63.8061 54.5906 61.0909 54.5679 58.3755 54.5798L49.5469 54.6224C51.6529 49.3819 53.7876 44.153 55.9507 38.9358L60.3111 38.9301Z" fill="#A0F4E2"/>
<path d="M48.3892 59.0792L66.2591 59.0666C65.8179 61.7269 65.4005 62.9736 63.6002 65.0144C62.287 66.33 60.5819 67.1831 58.7416 67.4452C56.3173 67.812 53.8482 67.1766 51.9021 65.685C49.6602 63.9608 48.7513 61.7884 48.3892 59.0792Z" fill="#A0F4E2"/>
<path d="M92.8535 59.0733L110.698 59.0849C110.379 61.6751 109.778 63.0849 108.022 65.0124C106.664 66.2513 105.318 67.0369 103.49 67.3933C101.188 67.8546 98.7979 67.3709 96.8569 66.0511C94.2173 64.2638 93.416 62.0522 92.8535 59.0733Z" fill="#A0F4E2"/>
<path d="M79.7632 82.3483C90.3781 82.3485 98.9829 90.954 98.9829 101.569V136.348H60.5425V101.569C60.5425 90.9539 69.1481 82.3483 79.7632 82.3483Z" fill="#139085"/>
<path d="M79.7786 87.2035C87.6832 87.2038 94.1242 94.0544 94.4114 102.623H94.4377V132.687H65.1184V102.623H65.1458C65.433 94.0543 71.8737 87.2035 79.7786 87.2035Z" fill="#A0F4E2"/>
<path d="M40.649 23.0881C45.6452 22.9096 51.6907 23.0579 56.7597 23.0562L89.1241 23.0632L108.867 23.0521C111.034 23.0511 113.817 23.1751 115.926 23.0544C125.397 22.513 123.867 29.0043 123.894 36.0718C126.582 40.0258 129.233 44.0048 131.846 48.008C133.083 49.8628 134.449 51.8056 135.582 53.6001C138.507 58.2385 137.003 64.6538 133.154 68.3014C131.562 69.8108 130.311 70.5041 128.284 71.2699L128.3 111.197L128.306 122.754C128.306 125.126 128.413 127.557 128.114 129.905C127.51 134.649 123.362 137.734 118.745 137.902L62.7376 137.896L46.9972 137.903C41.9874 137.906 37.3076 138.776 33.5475 134.972C30.1366 131.523 30.7909 127.165 30.7914 122.761L30.7999 111.582L30.7871 71.3159C29.748 70.8928 28.7826 70.4374 27.8412 69.8223C24.9572 67.922 22.9487 64.9516 22.2594 61.5674C21.1027 55.7867 24.0159 52.8892 27.0122 48.3893L35.2326 36.092C35.479 30.8691 33.4772 24.0866 40.649 23.0881Z" fill="#139085"/>
<path d="M46.1958 66.1147C47.0693 67.0617 48.1537 68.4945 49.1353 69.2324C52.0242 71.4208 55.6631 72.3734 59.2536 71.8812C63.3307 71.2894 66.0957 69.2376 68.5158 66.0379C69.4889 67.3306 70.3942 68.3817 71.6945 69.3728C74.4613 71.4669 77.9487 72.3732 81.3837 71.8914C85.4501 71.2957 88.2275 69.2784 90.6181 66.0313C91.579 67.3333 92.5986 68.4402 93.8979 69.4193C96.6723 71.4947 100.156 72.39 103.588 71.9108C107.73 71.3083 110.461 69.3635 112.904 66.0688C115.682 69.9381 118.938 71.879 123.763 71.9935L123.759 126.382C123.784 128.392 123.899 130.226 122.435 131.821C121.059 133.32 119.755 133.346 117.769 133.357C111.94 133.384 106.08 133.368 100.251 133.367L66.4769 133.364L48.1495 133.362C45.3066 133.361 42.3732 133.427 39.5641 133.291C37.6158 133.195 35.5447 130.97 35.4156 129.059C35.2775 127.015 35.3151 124.913 35.3173 122.867L35.3317 111.388L35.316 71.9752C40.1812 71.8891 43.3266 69.9154 46.1958 66.1147Z" fill="#EDFBF9"/>
<path d="M40.2427 27.5706C44.7033 27.3286 51.6107 27.5552 56.204 27.5566L87.687 27.5431L108.582 27.5415C111.845 27.5348 115.113 27.4964 118.375 27.5572C120.179 27.5908 119.304 34.2798 119.086 34.4528C110.893 34.3446 102.447 34.4496 94.2363 34.4468L39.7223 34.4522C39.6912 32.734 39.1287 28.8823 40.2427 27.5706Z" fill="#139085"/>
<path d="M90.3721 38.8989L103.137 38.9341C104.458 41.9178 105.655 45.2018 106.963 48.2134C107.344 49.0929 109.412 53.9448 109.499 54.6003C103.872 54.5723 98.2442 54.5867 92.6177 54.6432C91.7388 50.0678 91.0181 43.6245 90.3721 38.8989Z" fill="#A0F4E2"/>
<path d="M60.3111 38.9301L68.7393 38.8983C67.922 44.0198 67.229 49.5041 66.5209 54.6477C63.8061 54.5906 61.0909 54.5679 58.3755 54.5798L49.5469 54.6224C51.6529 49.3819 53.7876 44.153 55.9507 38.9358L60.3111 38.9301Z" fill="#A0F4E2"/>
<path d="M48.3892 59.0792L66.2591 59.0666C65.8179 61.7269 65.4005 62.9736 63.6002 65.0144C62.287 66.33 60.5819 67.1831 58.7416 67.4452C56.3173 67.812 53.8482 67.1766 51.9021 65.685C49.6602 63.9608 48.7513 61.7884 48.3892 59.0792Z" fill="#A0F4E2"/>
<path d="M92.8535 59.0733L110.698 59.0849C110.379 61.6751 109.778 63.0849 108.022 65.0124C106.664 66.2513 105.318 67.0369 103.49 67.3933C101.188 67.8546 98.7979 67.3709 96.8569 66.0511C94.2173 64.2638 93.416 62.0522 92.8535 59.0733Z" fill="#A0F4E2"/>
<path d="M79.7632 82.3483C90.3781 82.3485 98.9829 90.954 98.9829 101.569V136.348H60.5425V101.569C60.5425 90.9539 69.1481 82.3483 79.7632 82.3483Z" fill="#139085"/>
<path d="M79.7786 87.2035C87.6832 87.2038 94.1242 94.0544 94.4114 102.623H94.4377V132.687H65.1184V102.623H65.1458C65.433 94.0543 71.8737 87.2035 79.7786 87.2035Z" fill="#A0F4E2"/>
</svg>
