<svg width="118" height="47" viewBox="0 0 118 47" fill="none" xmlns="http://www.w3.org/2000/svg">
<path d="M9.24 22.242C7.524 22.242 6.05 21.912 4.818 21.252C3.586 20.592 2.64 19.6607 1.98 18.458C1.33467 17.2553 1.012 15.8473 1.012 14.234C1.012 13.0313 1.19533 11.9387 1.562 10.956C1.94333 9.97333 2.486 9.13 3.19 8.426C3.90867 7.722 4.774 7.18667 5.786 6.82C6.81267 6.43867 7.964 6.248 9.24 6.248C9.91467 6.248 10.6113 6.32867 11.33 6.49C12.0633 6.63667 12.7087 6.864 13.266 7.172C13.6767 7.392 13.9627 7.67067 14.124 8.008C14.2853 8.34533 14.3367 8.69 14.278 9.042C14.234 9.394 14.1093 9.70933 13.904 9.988C13.6987 10.2667 13.4347 10.4573 13.112 10.56C12.7893 10.648 12.4373 10.5967 12.056 10.406C11.616 10.2007 11.176 10.0467 10.736 9.944C10.3107 9.82667 9.86333 9.768 9.394 9.768C8.48467 9.768 7.722 9.944 7.106 10.296C6.50467 10.6333 6.05 11.132 5.742 11.792C5.434 12.452 5.28 13.266 5.28 14.234C5.28 15.202 5.434 16.0233 5.742 16.698C6.05 17.358 6.50467 17.864 7.106 18.216C7.722 18.5533 8.48467 18.722 9.394 18.722C9.77533 18.722 10.186 18.678 10.626 18.59C11.066 18.4873 11.4987 18.3333 11.924 18.128C12.364 17.9373 12.7527 17.886 13.09 17.974C13.442 18.062 13.7207 18.238 13.926 18.502C14.146 18.766 14.2853 19.074 14.344 19.426C14.4027 19.7633 14.3513 20.1007 14.19 20.438C14.0433 20.7753 13.7793 21.0467 13.398 21.252C12.8847 21.56 12.2467 21.802 11.484 21.978C10.736 22.154 9.988 22.242 9.24 22.242ZM18.5785 22.198C17.9332 22.198 17.4345 22.022 17.0825 21.67C16.7305 21.3033 16.5545 20.79 16.5545 20.13V8.36C16.5545 7.68533 16.7305 7.172 17.0825 6.82C17.4345 6.468 17.9332 6.292 18.5785 6.292C19.2385 6.292 19.7372 6.468 20.0745 6.82C20.4265 7.172 20.6025 7.68533 20.6025 8.36V12.474H27.0045V8.36C27.0045 7.68533 27.1732 7.172 27.5105 6.82C27.8625 6.468 28.3685 6.292 29.0285 6.292C29.6738 6.292 30.1652 6.468 30.5025 6.82C30.8545 7.172 31.0305 7.68533 31.0305 8.36V20.13C31.0305 20.79 30.8545 21.3033 30.5025 21.67C30.1652 22.022 29.6738 22.198 29.0285 22.198C28.3685 22.198 27.8625 22.022 27.5105 21.67C27.1732 21.3033 27.0045 20.79 27.0045 20.13V15.796H20.6025V20.13C20.6025 20.79 20.4338 21.3033 20.0965 21.67C19.7592 22.022 19.2532 22.198 18.5785 22.198ZM41.3294 22.242C39.7601 22.242 38.3814 21.912 37.1934 21.252C36.0054 20.5773 35.0814 19.6387 34.4214 18.436C33.7761 17.2333 33.4534 15.8327 33.4534 14.234C33.4534 13.0313 33.6367 11.9387 34.0034 10.956C34.3847 9.97333 34.9201 9.13 35.6094 8.426C36.3134 7.722 37.1494 7.18667 38.1174 6.82C39.0854 6.43867 40.1561 6.248 41.3294 6.248C42.8987 6.248 44.2701 6.578 45.4434 7.238C46.6314 7.898 47.5554 8.82933 48.2154 10.032C48.8754 11.22 49.2054 12.6207 49.2054 14.234C49.2054 15.4367 49.0147 16.5293 48.6334 17.512C48.2667 18.4947 47.7314 19.3453 47.0274 20.064C46.3381 20.768 45.5094 21.3107 44.5414 21.692C43.5734 22.0587 42.5027 22.242 41.3294 22.242ZM41.3294 18.854C42.1067 18.854 42.7667 18.6707 43.3094 18.304C43.8521 17.9373 44.2701 17.4093 44.5634 16.72C44.8567 16.0307 45.0034 15.202 45.0034 14.234C45.0034 12.782 44.6807 11.6527 44.0354 10.846C43.3901 10.0393 42.4881 9.636 41.3294 9.636C40.5667 9.636 39.9067 9.81933 39.3494 10.186C38.8067 10.538 38.3887 11.0587 38.0954 11.748C37.8021 12.4227 37.6554 13.2513 37.6554 14.234C37.6554 15.686 37.9781 16.8227 38.6234 17.644C39.2687 18.4507 40.1707 18.854 41.3294 18.854ZM52.9155 17.622C52.4755 17.622 52.1088 17.4753 51.8155 17.182C51.5222 16.8887 51.3755 16.522 51.3755 16.082C51.3755 15.642 51.5222 15.2827 51.8155 15.004C52.1088 14.7107 52.4755 14.564 52.9155 14.564H57.2715C57.7115 14.564 58.0782 14.7107 58.3715 15.004C58.6648 15.2827 58.8115 15.642 58.8115 16.082C58.8115 16.522 58.6648 16.8887 58.3715 17.182C58.0782 17.4753 57.7115 17.622 57.2715 17.622H52.9155ZM63.4164 22.198C62.771 22.198 62.2724 22.022 61.9204 21.67C61.5684 21.3033 61.3924 20.79 61.3924 20.13V8.36C61.3924 7.68533 61.5684 7.172 61.9204 6.82C62.2724 6.468 62.771 6.292 63.4164 6.292C64.0764 6.292 64.575 6.468 64.9124 6.82C65.2644 7.172 65.4404 7.68533 65.4404 8.36V12.474H71.8424V8.36C71.8424 7.68533 72.011 7.172 72.3484 6.82C72.7004 6.468 73.2064 6.292 73.8664 6.292C74.5117 6.292 75.003 6.468 75.3404 6.82C75.6924 7.172 75.8684 7.68533 75.8684 8.36V20.13C75.8684 20.79 75.6924 21.3033 75.3404 21.67C75.003 22.022 74.5117 22.198 73.8664 22.198C73.2064 22.198 72.7004 22.022 72.3484 21.67C72.011 21.3033 71.8424 20.79 71.8424 20.13V15.796H65.4404V20.13C65.4404 20.79 65.2717 21.3033 64.9344 21.67C64.597 22.022 64.091 22.198 63.4164 22.198ZM85.5513 22.242C84.422 22.242 83.4246 22.1027 82.5593 21.824C81.694 21.5307 80.9606 21.098 80.3593 20.526C79.7726 19.954 79.3253 19.2427 79.0173 18.392C78.724 17.5267 78.5773 16.5293 78.5773 15.4V8.338C78.5773 7.66333 78.7533 7.15733 79.1053 6.82C79.4573 6.468 79.956 6.292 80.6013 6.292C81.2613 6.292 81.76 6.468 82.0973 6.82C82.4493 7.15733 82.6253 7.66333 82.6253 8.338V15.444C82.6253 16.5733 82.8746 17.424 83.3733 17.996C83.872 18.568 84.598 18.854 85.5513 18.854C86.49 18.854 87.2086 18.568 87.7073 17.996C88.206 17.424 88.4553 16.5733 88.4553 15.444V8.338C88.4553 7.66333 88.624 7.15733 88.9613 6.82C89.3133 6.468 89.812 6.292 90.4573 6.292C91.1026 6.292 91.594 6.468 91.9313 6.82C92.2686 7.15733 92.4373 7.66333 92.4373 8.338V15.4C92.4373 16.9107 92.1733 18.1793 91.6453 19.206C91.132 20.218 90.362 20.9807 89.3353 21.494C88.3086 21.9927 87.0473 22.242 85.5513 22.242ZM95.7629 22.198C95.3082 22.198 94.9269 22.0953 94.6189 21.89C94.3109 21.67 94.1202 21.3767 94.0469 21.01C93.9736 20.6287 94.0396 20.2033 94.2449 19.734L99.7229 7.942C99.9869 7.37 100.31 6.952 100.691 6.688C101.087 6.424 101.534 6.292 102.033 6.292C102.532 6.292 102.964 6.424 103.331 6.688C103.712 6.952 104.042 7.37 104.321 7.942L109.799 19.734C110.034 20.2033 110.114 20.6287 110.041 21.01C109.982 21.3913 109.799 21.6847 109.491 21.89C109.198 22.0953 108.831 22.198 108.391 22.198C107.804 22.198 107.35 22.066 107.027 21.802C106.719 21.538 106.44 21.1127 106.191 20.526L105.003 17.732L106.543 18.854H97.4789L99.0409 17.732L97.8529 20.526C97.5889 21.1127 97.3176 21.538 97.0389 21.802C96.7602 22.066 96.3349 22.198 95.7629 22.198ZM101.989 10.714L99.4369 16.808L98.8209 15.752H105.223L104.607 16.808L102.033 10.714H101.989ZM113.84 22.198C113.195 22.198 112.696 22.022 112.344 21.67C111.992 21.3033 111.816 20.79 111.816 20.13V8.36C111.816 7.68533 111.992 7.172 112.344 6.82C112.696 6.468 113.195 6.292 113.84 6.292C114.5 6.292 114.999 6.468 115.336 6.82C115.688 7.172 115.864 7.68533 115.864 8.36V20.13C115.864 20.79 115.696 21.3033 115.358 21.67C115.021 22.022 114.515 22.198 113.84 22.198Z" fill="white"/>
<path d="M2.256 41.128C1.92533 41.128 1.66933 41.0373 1.488 40.856C1.31733 40.664 1.232 40.4027 1.232 40.072V30.76C1.232 30.4187 1.32267 30.1627 1.504 29.992C1.68533 29.8107 1.94133 29.72 2.272 29.72H6.128C7.36533 29.72 8.32 30.0293 8.992 30.648C9.664 31.2667 10 32.1307 10 33.24C10 34.3493 9.664 35.2187 8.992 35.848C8.32 36.4667 7.36533 36.776 6.128 36.776H3.28V40.072C3.28 40.4027 3.19467 40.664 3.024 40.856C2.85333 41.0373 2.59733 41.128 2.256 41.128ZM3.28 35.16H5.808C6.53333 35.16 7.08267 35 7.456 34.68C7.82933 34.3493 8.016 33.8693 8.016 33.24C8.016 32.6107 7.82933 32.136 7.456 31.816C7.08267 31.496 6.53333 31.336 5.808 31.336H3.28V35.16ZM16.6474 41.16C15.5594 41.16 14.6047 40.92 13.7834 40.44C12.9727 39.96 12.3434 39.288 11.8954 38.424C11.4474 37.5493 11.2234 36.5253 11.2234 35.352C11.2234 34.4667 11.3514 33.672 11.6074 32.968C11.8634 32.2533 12.226 31.6453 12.6954 31.144C13.1754 30.632 13.746 30.2427 14.4074 29.976C15.0794 29.6987 15.826 29.56 16.6474 29.56C17.746 29.56 18.7007 29.8 19.5114 30.28C20.322 30.7493 20.9514 31.416 21.3994 32.28C21.8474 33.144 22.0714 34.1627 22.0714 35.336C22.0714 36.2213 21.9434 37.0213 21.6874 37.736C21.4314 38.4507 21.0634 39.064 20.5834 39.576C20.114 40.088 19.5434 40.4827 18.8714 40.76C18.21 41.0267 17.4687 41.16 16.6474 41.16ZM16.6474 39.4C17.3407 39.4 17.9274 39.24 18.4074 38.92C18.898 38.6 19.2714 38.136 19.5274 37.528C19.794 36.92 19.9274 36.1947 19.9274 35.352C19.9274 34.072 19.6394 33.08 19.0634 32.376C18.498 31.672 17.6927 31.32 16.6474 31.32C15.9647 31.32 15.378 31.48 14.8874 31.8C14.3967 32.1093 14.018 32.568 13.7514 33.176C13.4954 33.7733 13.3674 34.4987 13.3674 35.352C13.3674 36.6213 13.6554 37.6133 14.2314 38.328C14.8074 39.0427 15.6127 39.4 16.6474 39.4ZM28.0419 41.16C27.5725 41.16 27.1032 41.1227 26.6339 41.048C26.1645 40.984 25.7219 40.8827 25.3059 40.744C24.8899 40.5947 24.5165 40.4133 24.1859 40.2C23.9939 40.072 23.8605 39.9173 23.7859 39.736C23.7112 39.5547 23.6845 39.3787 23.7059 39.208C23.7379 39.0267 23.8072 38.872 23.9139 38.744C24.0312 38.6053 24.1752 38.52 24.3459 38.488C24.5165 38.456 24.7032 38.504 24.9059 38.632C25.3752 38.9093 25.8712 39.112 26.3939 39.24C26.9165 39.368 27.4659 39.432 28.0419 39.432C28.8845 39.432 29.4979 39.2933 29.8819 39.016C30.2659 38.728 30.4579 38.36 30.4579 37.912C30.4579 37.5387 30.3192 37.2453 30.0419 37.032C29.7752 36.8187 29.3112 36.6427 28.6499 36.504L26.8899 36.136C25.8765 35.9227 25.1192 35.5653 24.6179 35.064C24.1272 34.552 23.8819 33.88 23.8819 33.048C23.8819 32.5253 23.9885 32.0507 24.2019 31.624C24.4152 31.1973 24.7139 30.8293 25.0979 30.52C25.4925 30.2107 25.9565 29.976 26.4899 29.816C27.0339 29.6453 27.6312 29.56 28.2819 29.56C28.9219 29.56 29.5299 29.64 30.1059 29.8C30.6819 29.96 31.1992 30.1947 31.6579 30.504C31.8285 30.6213 31.9405 30.7653 31.9939 30.936C32.0579 31.1067 32.0739 31.2773 32.0419 31.448C32.0099 31.608 31.9352 31.7467 31.8179 31.864C31.7005 31.9813 31.5512 32.0507 31.3699 32.072C31.1992 32.0933 31.0019 32.04 30.7779 31.912C30.3832 31.688 29.9832 31.528 29.5779 31.432C29.1725 31.336 28.7352 31.288 28.2659 31.288C27.7752 31.288 27.3539 31.3573 27.0019 31.496C26.6499 31.6347 26.3779 31.832 26.1859 32.088C26.0045 32.3333 25.9139 32.6267 25.9139 32.968C25.9139 33.352 26.0419 33.6613 26.2979 33.896C26.5539 34.12 26.9912 34.296 27.6099 34.424L29.3539 34.792C30.4099 35.016 31.1939 35.368 31.7059 35.848C32.2285 36.328 32.4899 36.968 32.4899 37.768C32.4899 38.28 32.3832 38.744 32.1699 39.16C31.9672 39.576 31.6685 39.9333 31.2739 40.232C30.8899 40.5307 30.4259 40.76 29.8819 40.92C29.3379 41.08 28.7245 41.16 28.0419 41.16Z" fill="#14B8A6"/>
</svg>
