<svg width="48" height="46" viewBox="0 0 48 46" fill="none" xmlns="http://www.w3.org/2000/svg">
<path opacity="0.25" d="M20 46C31.0457 46 40 37.0457 40 26C40 14.9543 31.0457 6 20 6C8.9543 6 0 14.9543 0 26C0 37.0457 8.9543 46 20 46Z" fill="#14B8A6"/>
<path opacity="0.9" d="M28 40C39.0457 40 48 31.0457 48 20C48 8.9543 39.0457 0 28 0C16.9543 0 8 8.9543 8 20C8 31.0457 16.9543 40 28 40Z" fill="url(#paint0_linear_2051_641)"/>
<path d="M34.935 23.644C34.935 25.3253 34.4497 26.6253 33.479 27.544C32.5257 28.4627 31.1303 28.948 29.293 29V31.054H26.433V29H21.935V10.8H26.433V9.006H29.293V10.878C30.9223 11.0513 32.153 11.5193 32.985 12.282C33.8343 13.0273 34.259 14.05 34.259 15.35C34.259 16.2167 34.0597 16.962 33.661 17.586C33.2623 18.21 32.6383 18.7387 31.789 19.172V19.25C32.8983 19.666 33.6957 20.2207 34.181 20.914C34.6837 21.6073 34.935 22.5173 34.935 23.644ZM25.679 18.054H28.175C28.903 18.054 29.4663 17.8547 29.865 17.456C30.281 17.04 30.489 16.468 30.489 15.74C30.489 15.0293 30.255 14.5093 29.787 14.18C29.3363 13.8507 28.6343 13.686 27.681 13.686H25.679V18.054ZM28.695 26.114C29.5097 26.114 30.1337 25.88 30.567 25.412C31.0177 24.944 31.243 24.2767 31.243 23.41C31.243 22.4913 30.9743 21.824 30.437 21.408C29.8997 20.992 29.033 20.784 27.837 20.784H25.679V26.114H28.695Z" fill="white"/>
<defs>
<linearGradient id="paint0_linear_2051_641" x1="42" y1="34" x2="14.5" y2="5.5" gradientUnits="userSpaceOnUse">
<stop stop-color="#00CCB1"/>
<stop offset="1" stop-color="#03786E"/>
</linearGradient>
</defs>
</svg>
