<svg width="172" height="47" viewBox="0 0 172 47" fill="none" xmlns="http://www.w3.org/2000/svg">
<path d="M63.24 22.242C61.524 22.242 60.05 21.912 58.818 21.252C57.586 20.592 56.64 19.6607 55.98 18.458C55.3347 17.2553 55.012 15.8473 55.012 14.234C55.012 13.0313 55.1953 11.9387 55.562 10.956C55.9433 9.97333 56.486 9.13 57.19 8.426C57.9087 7.722 58.774 7.18667 59.786 6.82C60.8127 6.43867 61.964 6.248 63.24 6.248C63.9147 6.248 64.6113 6.32867 65.33 6.49C66.0633 6.63667 66.7087 6.864 67.266 7.172C67.6767 7.392 67.9627 7.67067 68.124 8.008C68.2853 8.34533 68.3367 8.69 68.278 9.042C68.234 9.394 68.1093 9.70933 67.904 9.988C67.6987 10.2667 67.4347 10.4573 67.112 10.56C66.7893 10.648 66.4373 10.5967 66.056 10.406C65.616 10.2007 65.176 10.0467 64.736 9.944C64.3107 9.82667 63.8633 9.768 63.394 9.768C62.4847 9.768 61.722 9.944 61.106 10.296C60.5047 10.6333 60.05 11.132 59.742 11.792C59.434 12.452 59.28 13.266 59.28 14.234C59.28 15.202 59.434 16.0233 59.742 16.698C60.05 17.358 60.5047 17.864 61.106 18.216C61.722 18.5533 62.4847 18.722 63.394 18.722C63.7753 18.722 64.186 18.678 64.626 18.59C65.066 18.4873 65.4987 18.3333 65.924 18.128C66.364 17.9373 66.7527 17.886 67.09 17.974C67.442 18.062 67.7207 18.238 67.926 18.502C68.146 18.766 68.2853 19.074 68.344 19.426C68.4027 19.7633 68.3513 20.1007 68.19 20.438C68.0433 20.7753 67.7793 21.0467 67.398 21.252C66.8847 21.56 66.2467 21.802 65.484 21.978C64.736 22.154 63.988 22.242 63.24 22.242ZM72.5785 22.198C71.9332 22.198 71.4345 22.022 71.0825 21.67C70.7305 21.3033 70.5545 20.79 70.5545 20.13V8.36C70.5545 7.68533 70.7305 7.172 71.0825 6.82C71.4345 6.468 71.9332 6.292 72.5785 6.292C73.2385 6.292 73.7372 6.468 74.0745 6.82C74.4265 7.172 74.6025 7.68533 74.6025 8.36V12.474H81.0045V8.36C81.0045 7.68533 81.1732 7.172 81.5105 6.82C81.8625 6.468 82.3685 6.292 83.0285 6.292C83.6738 6.292 84.1652 6.468 84.5025 6.82C84.8545 7.172 85.0305 7.68533 85.0305 8.36V20.13C85.0305 20.79 84.8545 21.3033 84.5025 21.67C84.1652 22.022 83.6738 22.198 83.0285 22.198C82.3685 22.198 81.8625 22.022 81.5105 21.67C81.1732 21.3033 81.0045 20.79 81.0045 20.13V15.796H74.6025V20.13C74.6025 20.79 74.4338 21.3033 74.0965 21.67C73.7592 22.022 73.2532 22.198 72.5785 22.198ZM95.3294 22.242C93.7601 22.242 92.3814 21.912 91.1934 21.252C90.0054 20.5773 89.0814 19.6387 88.4214 18.436C87.7761 17.2333 87.4534 15.8327 87.4534 14.234C87.4534 13.0313 87.6367 11.9387 88.0034 10.956C88.3847 9.97333 88.9201 9.13 89.6094 8.426C90.3134 7.722 91.1494 7.18667 92.1174 6.82C93.0854 6.43867 94.1561 6.248 95.3294 6.248C96.8987 6.248 98.2701 6.578 99.4434 7.238C100.631 7.898 101.555 8.82933 102.215 10.032C102.875 11.22 103.205 12.6207 103.205 14.234C103.205 15.4367 103.015 16.5293 102.633 17.512C102.267 18.4947 101.731 19.3453 101.027 20.064C100.338 20.768 99.5094 21.3107 98.5414 21.692C97.5734 22.0587 96.5027 22.242 95.3294 22.242ZM95.3294 18.854C96.1067 18.854 96.7667 18.6707 97.3094 18.304C97.8521 17.9373 98.2701 17.4093 98.5634 16.72C98.8567 16.0307 99.0034 15.202 99.0034 14.234C99.0034 12.782 98.6807 11.6527 98.0354 10.846C97.3901 10.0393 96.4881 9.636 95.3294 9.636C94.5667 9.636 93.9067 9.81933 93.3494 10.186C92.8067 10.538 92.3887 11.0587 92.0954 11.748C91.8021 12.4227 91.6554 13.2513 91.6554 14.234C91.6554 15.686 91.9781 16.8227 92.6234 17.644C93.2687 18.4507 94.1707 18.854 95.3294 18.854ZM106.916 17.622C106.476 17.622 106.109 17.4753 105.816 17.182C105.522 16.8887 105.376 16.522 105.376 16.082C105.376 15.642 105.522 15.2827 105.816 15.004C106.109 14.7107 106.476 14.564 106.916 14.564H111.272C111.712 14.564 112.078 14.7107 112.372 15.004C112.665 15.2827 112.812 15.642 112.812 16.082C112.812 16.522 112.665 16.8887 112.372 17.182C112.078 17.4753 111.712 17.622 111.272 17.622H106.916ZM117.416 22.198C116.771 22.198 116.272 22.022 115.92 21.67C115.568 21.3033 115.392 20.79 115.392 20.13V8.36C115.392 7.68533 115.568 7.172 115.92 6.82C116.272 6.468 116.771 6.292 117.416 6.292C118.076 6.292 118.575 6.468 118.912 6.82C119.264 7.172 119.44 7.68533 119.44 8.36V12.474H125.842V8.36C125.842 7.68533 126.011 7.172 126.348 6.82C126.7 6.468 127.206 6.292 127.866 6.292C128.512 6.292 129.003 6.468 129.34 6.82C129.692 7.172 129.868 7.68533 129.868 8.36V20.13C129.868 20.79 129.692 21.3033 129.34 21.67C129.003 22.022 128.512 22.198 127.866 22.198C127.206 22.198 126.7 22.022 126.348 21.67C126.011 21.3033 125.842 20.79 125.842 20.13V15.796H119.44V20.13C119.44 20.79 119.272 21.3033 118.934 21.67C118.597 22.022 118.091 22.198 117.416 22.198ZM139.551 22.242C138.422 22.242 137.425 22.1027 136.559 21.824C135.694 21.5307 134.961 21.098 134.359 20.526C133.773 19.954 133.325 19.2427 133.017 18.392C132.724 17.5267 132.577 16.5293 132.577 15.4V8.338C132.577 7.66333 132.753 7.15733 133.105 6.82C133.457 6.468 133.956 6.292 134.601 6.292C135.261 6.292 135.76 6.468 136.097 6.82C136.449 7.15733 136.625 7.66333 136.625 8.338V15.444C136.625 16.5733 136.875 17.424 137.373 17.996C137.872 18.568 138.598 18.854 139.551 18.854C140.49 18.854 141.209 18.568 141.707 17.996C142.206 17.424 142.455 16.5733 142.455 15.444V8.338C142.455 7.66333 142.624 7.15733 142.961 6.82C143.313 6.468 143.812 6.292 144.457 6.292C145.103 6.292 145.594 6.468 145.931 6.82C146.269 7.15733 146.437 7.66333 146.437 8.338V15.4C146.437 16.9107 146.173 18.1793 145.645 19.206C145.132 20.218 144.362 20.9807 143.335 21.494C142.309 21.9927 141.047 22.242 139.551 22.242ZM149.763 22.198C149.308 22.198 148.927 22.0953 148.619 21.89C148.311 21.67 148.12 21.3767 148.047 21.01C147.974 20.6287 148.04 20.2033 148.245 19.734L153.723 7.942C153.987 7.37 154.31 6.952 154.691 6.688C155.087 6.424 155.534 6.292 156.033 6.292C156.532 6.292 156.964 6.424 157.331 6.688C157.712 6.952 158.042 7.37 158.321 7.942L163.799 19.734C164.034 20.2033 164.114 20.6287 164.041 21.01C163.982 21.3913 163.799 21.6847 163.491 21.89C163.198 22.0953 162.831 22.198 162.391 22.198C161.804 22.198 161.35 22.066 161.027 21.802C160.719 21.538 160.44 21.1127 160.191 20.526L159.003 17.732L160.543 18.854H151.479L153.041 17.732L151.853 20.526C151.589 21.1127 151.318 21.538 151.039 21.802C150.76 22.066 150.335 22.198 149.763 22.198ZM155.989 10.714L153.437 16.808L152.821 15.752H159.223L158.607 16.808L156.033 10.714H155.989ZM167.84 22.198C167.195 22.198 166.696 22.022 166.344 21.67C165.992 21.3033 165.816 20.79 165.816 20.13V8.36C165.816 7.68533 165.992 7.172 166.344 6.82C166.696 6.468 167.195 6.292 167.84 6.292C168.5 6.292 168.999 6.468 169.336 6.82C169.688 7.172 169.864 7.68533 169.864 8.36V20.13C169.864 20.79 169.696 21.3033 169.358 21.67C169.021 22.022 168.515 22.198 167.84 22.198Z" fill="white"/>
<path d="M56.256 41.128C55.9253 41.128 55.6693 41.0373 55.488 40.856C55.3173 40.664 55.232 40.4027 55.232 40.072V30.76C55.232 30.4187 55.3227 30.1627 55.504 29.992C55.6853 29.8107 55.9413 29.72 56.272 29.72H60.128C61.3653 29.72 62.32 30.0293 62.992 30.648C63.664 31.2667 64 32.1307 64 33.24C64 34.3493 63.664 35.2187 62.992 35.848C62.32 36.4667 61.3653 36.776 60.128 36.776H57.28V40.072C57.28 40.4027 57.1947 40.664 57.024 40.856C56.8533 41.0373 56.5973 41.128 56.256 41.128ZM57.28 35.16H59.808C60.5333 35.16 61.0827 35 61.456 34.68C61.8293 34.3493 62.016 33.8693 62.016 33.24C62.016 32.6107 61.8293 32.136 61.456 31.816C61.0827 31.496 60.5333 31.336 59.808 31.336H57.28V35.16ZM70.6474 41.16C69.5594 41.16 68.6047 40.92 67.7834 40.44C66.9727 39.96 66.3434 39.288 65.8954 38.424C65.4474 37.5493 65.2234 36.5253 65.2234 35.352C65.2234 34.4667 65.3514 33.672 65.6074 32.968C65.8634 32.2533 66.226 31.6453 66.6954 31.144C67.1754 30.632 67.746 30.2427 68.4074 29.976C69.0794 29.6987 69.826 29.56 70.6474 29.56C71.746 29.56 72.7007 29.8 73.5114 30.28C74.322 30.7493 74.9514 31.416 75.3994 32.28C75.8474 33.144 76.0714 34.1627 76.0714 35.336C76.0714 36.2213 75.9434 37.0213 75.6874 37.736C75.4314 38.4507 75.0634 39.064 74.5834 39.576C74.114 40.088 73.5434 40.4827 72.8714 40.76C72.21 41.0267 71.4687 41.16 70.6474 41.16ZM70.6474 39.4C71.3407 39.4 71.9274 39.24 72.4074 38.92C72.898 38.6 73.2714 38.136 73.5274 37.528C73.794 36.92 73.9274 36.1947 73.9274 35.352C73.9274 34.072 73.6394 33.08 73.0634 32.376C72.498 31.672 71.6927 31.32 70.6474 31.32C69.9647 31.32 69.378 31.48 68.8874 31.8C68.3967 32.1093 68.018 32.568 67.7514 33.176C67.4954 33.7733 67.3674 34.4987 67.3674 35.352C67.3674 36.6213 67.6554 37.6133 68.2314 38.328C68.8074 39.0427 69.6127 39.4 70.6474 39.4ZM82.0419 41.16C81.5725 41.16 81.1032 41.1227 80.6339 41.048C80.1645 40.984 79.7219 40.8827 79.3059 40.744C78.8899 40.5947 78.5165 40.4133 78.1859 40.2C77.9939 40.072 77.8605 39.9173 77.7859 39.736C77.7112 39.5547 77.6845 39.3787 77.7059 39.208C77.7379 39.0267 77.8072 38.872 77.9139 38.744C78.0312 38.6053 78.1752 38.52 78.3459 38.488C78.5165 38.456 78.7032 38.504 78.9059 38.632C79.3752 38.9093 79.8712 39.112 80.3939 39.24C80.9165 39.368 81.4659 39.432 82.0419 39.432C82.8845 39.432 83.4979 39.2933 83.8819 39.016C84.2659 38.728 84.4579 38.36 84.4579 37.912C84.4579 37.5387 84.3192 37.2453 84.0419 37.032C83.7752 36.8187 83.3112 36.6427 82.6499 36.504L80.8899 36.136C79.8765 35.9227 79.1192 35.5653 78.6179 35.064C78.1272 34.552 77.8819 33.88 77.8819 33.048C77.8819 32.5253 77.9885 32.0507 78.2019 31.624C78.4152 31.1973 78.7139 30.8293 79.0979 30.52C79.4925 30.2107 79.9565 29.976 80.4899 29.816C81.0339 29.6453 81.6312 29.56 82.2819 29.56C82.9219 29.56 83.5299 29.64 84.1059 29.8C84.6819 29.96 85.1992 30.1947 85.6579 30.504C85.8285 30.6213 85.9405 30.7653 85.9939 30.936C86.0579 31.1067 86.0739 31.2773 86.0419 31.448C86.0099 31.608 85.9352 31.7467 85.8179 31.864C85.7005 31.9813 85.5512 32.0507 85.3699 32.072C85.1992 32.0933 85.0019 32.04 84.7779 31.912C84.3832 31.688 83.9832 31.528 83.5779 31.432C83.1725 31.336 82.7352 31.288 82.2659 31.288C81.7752 31.288 81.3539 31.3573 81.0019 31.496C80.6499 31.6347 80.3779 31.832 80.1859 32.088C80.0045 32.3333 79.9139 32.6267 79.9139 32.968C79.9139 33.352 80.0419 33.6613 80.2979 33.896C80.5539 34.12 80.9912 34.296 81.6099 34.424L83.3539 34.792C84.4099 35.016 85.1939 35.368 85.7059 35.848C86.2285 36.328 86.4899 36.968 86.4899 37.768C86.4899 38.28 86.3832 38.744 86.1699 39.16C85.9672 39.576 85.6685 39.9333 85.2739 40.232C84.8899 40.5307 84.4259 40.76 83.8819 40.92C83.3379 41.08 82.7245 41.16 82.0419 41.16Z" fill="#14B8A6"/>
<path opacity="0.25" d="M20 46C31.0457 46 40 37.0457 40 26C40 14.9543 31.0457 6 20 6C8.9543 6 0 14.9543 0 26C0 37.0457 8.9543 46 20 46Z" fill="#14B8A6"/>
<path opacity="0.9" d="M28 40C39.0457 40 48 31.0457 48 20C48 8.9543 39.0457 0 28 0C16.9543 0 8 8.9543 8 20C8 31.0457 16.9543 40 28 40Z" fill="url(#paint0_linear_2050_617)"/>
<path d="M34.935 23.644C34.935 25.3253 34.4497 26.6253 33.479 27.544C32.5257 28.4627 31.1303 28.948 29.293 29V31.054H26.433V29H21.935V10.8H26.433V9.006H29.293V10.878C30.9223 11.0513 32.153 11.5193 32.985 12.282C33.8343 13.0273 34.259 14.05 34.259 15.35C34.259 16.2167 34.0597 16.962 33.661 17.586C33.2623 18.21 32.6383 18.7387 31.789 19.172V19.25C32.8983 19.666 33.6957 20.2207 34.181 20.914C34.6837 21.6073 34.935 22.5173 34.935 23.644ZM25.679 18.054H28.175C28.903 18.054 29.4663 17.8547 29.865 17.456C30.281 17.04 30.489 16.468 30.489 15.74C30.489 15.0293 30.255 14.5093 29.787 14.18C29.3363 13.8507 28.6343 13.686 27.681 13.686H25.679V18.054ZM28.695 26.114C29.5097 26.114 30.1337 25.88 30.567 25.412C31.0177 24.944 31.243 24.2767 31.243 23.41C31.243 22.4913 30.9743 21.824 30.437 21.408C29.8997 20.992 29.033 20.784 27.837 20.784H25.679V26.114H28.695Z" fill="white"/>
<defs>
<linearGradient id="paint0_linear_2050_617" x1="42" y1="34" x2="14.5" y2="5.5" gradientUnits="userSpaceOnUse">
<stop stop-color="#00CCB1"/>
<stop offset="1" stop-color="#03786E"/>
</linearGradient>
</defs>
</svg>
